<?xml version="1.0" standalone="no"?>
<!DOCTYPE svg PUBLIC "-//W3C//DTD SVG 20010904//EN"
 "http://www.w3.org/TR/2001/REC-SVG-20010904/DTD/svg10.dtd">
<svg version="1.0" xmlns="http://www.w3.org/2000/svg"
 width="755.000000pt" height="75.000000pt" viewBox="0 0 755.000000 75.000000"
 preserveAspectRatio="xMidYMid meet">

<g transform="translate(0.000000,75.000000) scale(0.100000,-0.100000)"
fill="#000000" stroke="none">
<path d="M4445 573 c-11 -3 -26 -10 -32 -15 -18 -14 -18 -172 0 -186 19 -16
64 -25 92 -18 39 10 30 25 -17 28 -42 3 -43 4 -46 41 l-3 37 40 0 c23 0 41 5
41 10 0 6 -18 10 -41 10 -39 0 -40 1 -37 33 3 30 6 32 46 35 41 3 61 22 23 22
-11 0 -25 2 -33 4 -7 2 -22 1 -33 -1z"/>
<path d="M3510 551 c-5 -11 -10 -58 -10 -105 0 -68 3 -86 14 -86 11 0 16 14
18 48 l3 47 43 3 c56 4 54 22 -3 22 -40 0 -45 2 -45 23 0 32 18 47 57 47 18 0
33 5 33 10 0 6 -22 10 -50 10 -38 0 -52 -4 -60 -19z"/>
<path d="M3692 558 c-17 -17 -16 -172 1 -186 13 -11 37 -15 80 -13 43 2 31 20
-15 23 -42 3 -43 4 -46 41 l-3 37 45 0 c25 0 46 5 46 10 0 6 -21 10 -46 10
-45 0 -45 0 -42 33 3 30 6 32 46 35 23 2 42 7 42 13 0 13 -94 11 -108 -3z"/>
<path d="M3850 465 c0 -87 3 -105 15 -105 11 0 15 11 15 40 0 40 0 40 38 40
53 0 82 23 82 65 0 50 -21 65 -91 65 l-59 0 0 -105z m110 71 c29 -36 -18 -90
-64 -73 -16 6 -23 66 -9 80 12 12 60 7 73 -7z"/>
<path d="M4062 558 c-17 -17 -16 -172 1 -186 21 -18 107 -20 107 -3 0 6 -19
11 -42 13 -42 3 -43 4 -43 38 0 34 1 35 43 38 56 4 54 22 -4 22 -45 0 -45 0
-42 33 3 30 6 32 46 35 23 2 42 7 42 13 0 13 -94 11 -108 -3z"/>
<path d="M4232 558 c-7 -7 -12 -25 -12 -40 0 -23 9 -34 50 -59 28 -17 50 -36
50 -43 0 -22 -24 -36 -62 -36 -21 0 -38 -4 -38 -9 0 -14 56 -18 92 -7 28 9 33
16 36 47 3 33 0 38 -48 67 -67 41 -66 66 3 70 26 2 47 7 47 13 0 13 -104 11
-118 -3z"/>
<path d="M3205 541 c-16 -10 -41 -30 -54 -45 -14 -14 -30 -26 -38 -26 -7 0
-13 -5 -13 -10 0 -6 -19 -20 -42 -30 -24 -11 -36 -20 -27 -20 15 0 60 28 153
95 53 38 82 43 126 20 25 -13 100 -93 100 -107 0 -11 -69 -38 -98 -38 -16 0
-51 11 -77 25 -61 33 -71 25 -13 -9 65 -38 98 -42 149 -18 74 35 75 35 50 75
-12 19 -39 51 -61 71 -33 29 -48 36 -83 36 -24 0 -55 -8 -72 -19z"/>
<path d="M0 105 l0 -105 3775 0 3775 0 0 105 0 105 -3775 0 -3775 0 0 -105z
m2266 24 c4 -8 0 -9 -15 -4 -18 5 -21 2 -21 -19 0 -31 9 -33 38 -6 24 22 52
26 53 8 0 -10 2 -10 6 0 2 6 18 12 34 12 16 0 29 -5 29 -12 0 -10 2 -10 8 -1
5 8 29 12 61 12 34 -1 56 3 61 11 7 11 12 10 25 -4 16 -16 18 -16 31 1 7 10
14 14 14 8 7 -57 5 -63 -17 -62 -16 0 -23 6 -24 21 l-2 21 -4 -21 c-5 -24 -45
-50 -62 -39 -6 3 -9 11 -6 16 3 5 -1 6 -9 3 -12 -4 -16 1 -17 17 -2 24 -2 24
-6 2 -5 -24 -23 -32 -24 -10 0 6 -5 2 -11 -10 -6 -13 -15 -23 -20 -23 -5 0 -7
4 -4 9 4 5 2 20 -3 33 l-10 23 0 -22 c-1 -13 -7 -23 -15 -23 -8 0 -17 -6 -19
-12 -3 -7 -6 -2 -7 12 -1 14 -4 19 -7 13 -6 -16 -43 -17 -43 -1 0 9 -3 9 -12
0 -29 -29 -66 -2 -53 39 7 21 40 26 51 8z m414 -4 c20 -25 8 -50 -25 -50 -24
0 -31 5 -33 24 -6 37 34 55 58 26z m130 -20 c0 -33 0 -33 -51 -33 -48 -1 -50
0 -35 17 21 23 21 42 -1 34 -10 -4 -14 -2 -10 4 3 5 27 10 52 11 44 0 45 0 45
-33z m40 0 c0 -19 -4 -35 -9 -35 -10 0 -22 51 -14 62 11 19 23 5 23 -27z m57
2 c1 -17 -4 -30 -13 -34 -22 -8 -33 8 -27 40 7 37 37 32 40 -6z m321 25 c-10
-2 -18 -8 -18 -13 0 -5 8 -10 18 -10 16 -1 16 -2 0 -6 -10 -2 -18 -8 -18 -13
0 -5 8 -10 18 -12 9 -2 -16 -5 -56 -6 -65 -1 -75 1 -79 17 -6 22 -43 17 -43
-5 0 -19 -49 -18 -56 1 -4 8 -12 15 -20 15 -8 0 -14 -7 -14 -15 0 -8 -4 -15
-10 -15 -10 0 -14 53 -4 62 3 3 71 6 152 5 81 0 139 -2 130 -5z m82 -32 c0
-22 -4 -40 -10 -40 -5 0 -10 18 -10 40 0 22 5 40 10 40 6 0 10 -18 10 -40z
m98 33 c-12 -3 -19 -15 -19 -36 l-2 -32 -4 30 c-3 16 -10 33 -16 37 -7 4 4 7
23 7 19 -1 27 -3 18 -6z m101 -26 c1 7 17 12 42 11 27 0 37 -3 28 -9 -11 -7
-10 -9 4 -9 9 0 17 -7 17 -15 0 -9 -9 -15 -22 -15 -17 0 -19 3 -10 9 11 7 11
9 -2 14 -10 4 -16 1 -16 -8 0 -18 -40 -20 -41 -2 0 10 -2 10 -6 0 -2 -7 -13
-13 -24 -13 -14 0 -19 7 -19 25 0 16 6 25 15 25 8 0 15 6 16 13 1 6 5 1 9 -13
4 -14 8 -20 9 -13z m281 -2 c0 -28 -4 -35 -20 -35 -15 0 -20 7 -20 25 0 16 6
25 15 25 8 0 15 5 15 10 0 6 2 10 5 10 3 0 5 -16 5 -35z m143 -9 l-4 -21 10
21 c7 17 19 22 52 22 26 1 38 -2 30 -7 -10 -6 -9 -10 4 -15 31 -12 4 -25 -50
-24 -48 1 -55 4 -56 22 -1 18 -2 18 -9 -4 -8 -24 -8 -25 -9 -2 -1 26 21 55 30
40 4 -6 5 -20 2 -32z m477 31 c0 -10 13 -12 48 -10 29 2 42 0 34 -6 -11 -6
-10 -9 3 -15 36 -14 0 -23 -90 -24 -87 0 -119 10 -79 25 13 5 13 8 2 15 -9 7
-4 8 14 4 18 -4 32 -1 40 9 16 18 28 19 28 2z m157 -49 c-2 -13 -4 -3 -4 22 0
25 2 35 4 23 2 -13 2 -33 0 -45z m106 30 l12 -33 6 35 6 35 2 -37 c1 -40 -14
-49 -37 -26 -10 10 -15 10 -22 -2 -15 -24 -21 -5 -9 28 14 41 27 40 42 0z m44
-20 c-2 -13 -4 -5 -4 17 -1 22 1 32 4 23 2 -10 2 -28 0 -40z m159 32 c9 0 14
-10 13 -27 l-1 -28 -8 25 c-7 24 -8 24 -16 5 -19 -47 -64 -63 -64 -22 0 17 -2
19 -9 8 -7 -11 -10 -9 -13 10 l-5 24 -11 -25 -11 -25 0 28 c-1 21 4 27 19 27
11 0 20 -6 21 -12 0 -10 2 -10 6 0 2 6 16 12 29 12 13 0 24 6 25 13 0 10 2 10
6 0 2 -7 11 -13 19 -13z m67 0 c18 0 19 -2 7 -10 -13 -8 -12 -10 3 -10 9 0 17
-7 17 -16 0 -23 -64 -15 -68 9 -5 23 8 57 15 40 3 -7 14 -13 26 -13z m397 -15
c0 -28 -4 -35 -20 -35 -15 0 -20 7 -20 25 0 16 6 25 15 25 8 0 15 5 15 10 0 6
2 10 5 10 3 0 5 -16 5 -35z m-1890 -10 c0 -18 -5 -25 -19 -25 -11 0 -21 6 -24
13 -7 20 4 37 24 37 14 0 19 -7 19 -25z m249 14 c-11 -7 -10 -9 4 -9 9 0 17
-7 17 -15 0 -9 -9 -15 -22 -15 -17 0 -19 3 -10 9 11 7 11 9 -2 14 -10 4 -16 1
-16 -8 0 -18 -37 -20 -43 -2 -8 25 5 36 45 35 27 0 36 -3 27 -9z m108 -26 c-3
-10 -5 -4 -5 12 0 17 2 24 5 18 2 -7 2 -21 0 -30z m83 22 c0 -8 -8 -15 -17
-16 -15 0 -15 -2 2 -9 19 -8 19 -9 -2 -9 -17 -1 -23 5 -23 19 0 27 -18 25 -23
-2 -4 -20 -4 -19 -6 5 -1 25 2 27 34 27 24 0 35 -5 35 -15z m192 -10 c-2 -14
-8 -25 -13 -25 -5 0 -9 11 -9 25 0 14 6 25 14 25 9 0 12 -8 8 -25z m88 15
c-13 -8 -12 -10 3 -10 9 0 17 5 17 10 0 15 40 12 41 -2 0 -10 2 -10 6 0 2 6
13 12 24 12 10 0 19 -6 19 -12 0 -9 3 -8 10 2 12 20 23 6 15 -19 -8 -27 -25
-27 -32 -1 -7 27 -23 25 -24 -2 0 -13 -3 -17 -6 -10 -2 6 -14 12 -26 11 -21 0
-21 -1 -2 -8 13 -6 -3 -9 -47 -10 -37 0 -70 4 -73 10 -14 22 4 37 46 37 30 1
39 -2 29 -8z m928 -1 c-10 -7 -9 -9 4 -9 9 0 19 4 22 9 8 13 89 12 98 -2 6 -9
8 -9 8 1 0 7 13 12 30 12 32 0 44 -29 13 -31 -15 0 -15 -2 2 -9 19 -8 19 -9
-2 -9 -17 -1 -23 5 -24 22 l-2 22 -4 -22 c-6 -29 -27 -29 -41 0 l-11 22 0 -22
c-1 -20 -6 -22 -58 -21 -32 0 -52 3 -44 6 22 7 -7 21 -32 14 -20 -5 -20 -6 -1
-13 18 -7 17 -8 -3 -8 -17 -1 -23 5 -23 19 0 27 -18 25 -23 -2 -4 -20 -4 -19
-6 4 -1 27 0 28 55 27 35 -1 51 -5 42 -10z"/>
<path d="M2290 95 c0 -8 5 -15 10 -15 6 0 10 7 10 15 0 8 -4 15 -10 15 -5 0
-10 -7 -10 -15z"/>
<path d="M2345 101 c-3 -5 -1 -12 5 -16 5 -3 10 1 10 9 0 18 -6 21 -15 7z"/>
<path d="M2485 101 c-3 -5 -1 -12 5 -16 5 -3 10 1 10 9 0 18 -6 21 -15 7z"/>
<path d="M2644 103 c10 -11 36 -12 36 -2 0 5 -10 9 -22 9 -12 0 -18 -3 -14 -7z"/>
<path d="M2780 105 c0 -15 4 -24 10 -20 6 3 10 12 10 20 0 8 -4 17 -10 20 -6
4 -10 -5 -10 -20z"/>
<path d="M2745 90 c-3 -5 -1 -10 4 -10 6 0 11 5 11 10 0 6 -2 10 -4 10 -3 0
-8 -4 -11 -10z"/>
<path d="M2880 90 c0 -5 5 -10 10 -10 6 0 10 5 10 10 0 6 -4 10 -10 10 -5 0
-10 -4 -10 -10z"/>
<path d="M2960 120 c0 -5 7 -10 15 -10 8 0 15 5 15 10 0 6 -7 10 -15 10 -8 0
-15 -4 -15 -10z"/>
<path d="M3010 120 c0 -5 7 -10 15 -10 8 0 15 5 15 10 0 6 -7 10 -15 10 -8 0
-15 -4 -15 -10z"/>
<path d="M3050 120 c0 -5 5 -10 10 -10 6 0 10 5 10 10 0 6 -4 10 -10 10 -5 0
-10 -4 -10 -10z"/>
<path d="M3110 120 c0 -5 7 -10 15 -10 8 0 15 5 15 10 0 6 -7 10 -15 10 -8 0
-15 -4 -15 -10z"/>
<path d="M3160 121 c0 -5 7 -11 15 -15 9 -3 15 0 15 9 0 8 -7 15 -15 15 -8 0
-15 -4 -15 -9z"/>
<path d="M3128 103 c-29 -7 -20 -23 13 -23 19 0 29 4 27 12 -5 14 -17 17 -40
11z"/>
<path d="M3010 90 c0 -5 7 -10 15 -10 8 0 15 5 15 10 0 6 -7 10 -15 10 -8 0
-15 -4 -15 -10z"/>
<path d="M3470 94 c0 -8 5 -12 10 -9 6 4 8 11 5 16 -9 14 -15 11 -15 -7z"/>
<path d="M3520 95 c0 -8 5 -15 10 -15 6 0 10 7 10 15 0 8 -4 15 -10 15 -5 0
-10 -7 -10 -15z"/>
<path d="M3760 94 c0 -8 5 -12 10 -9 6 4 8 11 5 16 -9 14 -15 11 -15 -7z"/>
<path d="M3956 101 c-4 -5 -2 -12 3 -15 5 -4 12 -2 15 3 4 5 2 12 -3 15 -5 4
-12 2 -15 -3z"/>
<path d="M3990 90 c0 -6 7 -10 15 -10 8 0 15 2 15 4 0 2 -7 6 -15 10 -8 3 -15
1 -15 -4z"/>
<path d="M4375 101 c-3 -5 -1 -12 5 -16 5 -3 10 1 10 9 0 18 -6 21 -15 7z"/>
<path d="M4426 101 c-4 -5 -2 -12 3 -15 5 -4 12 -2 15 3 4 5 2 12 -3 15 -5 4
-12 2 -15 -3z"/>
<path d="M4460 90 c0 -6 7 -10 15 -10 8 0 15 2 15 4 0 2 -7 6 -15 10 -8 3 -15
1 -15 -4z"/>
<path d="M4815 101 c-3 -5 -1 -12 5 -16 5 -3 10 1 10 9 0 18 -6 21 -15 7z"/>
<path d="M4920 97 c0 -10 8 -17 18 -17 9 0 13 4 7 8 -5 4 -13 11 -17 16 -5 5
-8 2 -8 -7z"/>
<path d="M5310 94 c0 -8 5 -12 10 -9 6 4 8 11 5 16 -9 14 -15 11 -15 -7z"/>
<path d="M3420 95 c0 -8 5 -15 10 -15 6 0 10 7 10 15 0 8 -4 15 -10 15 -5 0
-10 -7 -10 -15z"/>
<path d="M3640 95 c0 -8 5 -15 10 -15 6 0 10 7 10 15 0 8 -4 15 -10 15 -5 0
-10 -7 -10 -15z"/>
<path d="M4125 89 c-16 -6 -14 -8 13 -8 33 -1 41 4 20 12 -7 2 -22 1 -33 -4z"/>
<path d="M5148 83 c7 -3 16 -2 19 1 4 3 -2 6 -13 5 -11 0 -14 -3 -6 -6z"/>
</g>
</svg>
